<?xml version="1.0" encoding="UTF-8" standalone="no"?>
<svg
   xmlns:dc="http://purl.org/dc/elements/1.1/"
   xmlns:cc="http://creativecommons.org/ns#"
   xmlns:rdf="http://www.w3.org/1999/02/22-rdf-syntax-ns#"
   xmlns:svg="http://www.w3.org/2000/svg"
   xmlns="http://www.w3.org/2000/svg"
   xmlns:sodipodi="http://sodipodi.sourceforge.net/DTD/sodipodi-0.dtd"
   xmlns:inkscape="http://www.inkscape.org/namespaces/inkscape"
   version="1.1"
   x="0px"
   y="0px"
   width="1000"
   height="1339"
   viewBox="0, 0, 1000, 1339"
   id="svg7"
   sodipodi:docname="hand3.svg"
   inkscape:version="0.92.3 (2405546, 2018-03-11)">
  <metadata
     id="metadata11">
    <rdf:RDF>
      <cc:Work
         rdf:about="">
        <dc:format>image/svg+xml</dc:format>
        <dc:type
           rdf:resource="http://purl.org/dc/dcmitype/StillImage" />
        <dc:title></dc:title>
      </cc:Work>
    </rdf:RDF>
  </metadata>
  <sodipodi:namedview
     pagecolor="#ffffff"
     bordercolor="#666666"
     borderopacity="1"
     objecttolerance="10"
     gridtolerance="10"
     guidetolerance="10"
     inkscape:pageopacity="0"
     inkscape:pageshadow="2"
     inkscape:window-width="1536"
     inkscape:window-height="841"
     id="namedview9"
     showgrid="false"
     inkscape:zoom="0.24925646"
     inkscape:cx="283.74151"
     inkscape:cy="702.73593"
     inkscape:window-x="-8"
     inkscape:window-y="-8"
     inkscape:window-maximized="1"
     inkscape:current-layer="svg7" />
  <g
     id="Layer_1"
     transform="translate(-53.900424,-189.55932)">
    <path
       style="fill:#000000;stroke:#000000;stroke-width:1"
       d="M 469.64413,576.84375 C 481.51474,568.16084 467.39706,542.93461 468.455,527.63941 466.66538,511.06207 464.08883,494.6315 461.00677,478.2964 458.26873,463.78467 455.13173,449.3483 451.79306,434.95131 445.51007,407.85782 438.51287,380.90383 432.1164,353.84969 428.11612,336.93034 424.35079,319.97182 421.14204,302.91551 418.21807,287.373 415.75627,271.74928 414,256 416.66711,198.05669 496.75437,220.13631 504.01562,265.73438 515.16473,291.92596 524.78691,318.67937 533.24269,345.81769 541.90141,373.60733 549.33709,401.80057 555.93686,430.20747 561.51655,454.2237 566.49877,478.39264 571.11746,502.5995 574.96809,522.7809 578.56604,542.98866 582.04688,563.15625 591.48187,636.82372 628.11632,707.77719 681.875,758.9375 730.7874,779.09861 738.62836,688.50177 761.8125,658.125 786.1538,600.64267 840.54457,539.64659 908.75,548.5 950.47028,578.81303 882.02157,632.12304 879.84375,674.14062 864.75126,721.08661 838.24066,767.92893 848.32812,818.70312 855.42217,871.31664 827.42857,916.44219 800.46094,958.875 774.43118,1005.6119 744.64182,1050.1183 712.51562,1092.7188 692.00676,1139.4471 717.19256,1191.2733 720.95312,1239.3135 726.98267,1272.2064 772.69839,1489.5011 778.7161,1522.3962 L 428.83686,1525.2331 C 434.01869,1460.8554 421.82315,1205.9605 380.78125,1153.7031 334.94018,1087.9006 296.67295,1043.0506 270.49488,965.94431 239.31431,890.73559 253.05648,920.268 240.2711,866.07522 248.27136,833.22034 225.48893,801.48687 237.08077,758.22553 237.08077,758.22553 273.11837,692.69892 299.11505,716.38909 295.12675,682.7704 312.29297,666.06824 329.17891,650.50733 345.99862,644.51875 354.86828,630.54116 377.17209,644.33882 368.00564,609.12615 357.25738,582.41234 395.37396,560.96562 422.16492,539.69816 448.92492,556.28667 469.64413,576.84375 Z"
       id="path2"
       inkscape:connector-curvature="0"
       sodipodi:nodetypes="ccssssccssscccccccccccccccccccc">
       /&gt;
    </path>
  </g>
  <defs
     id="defs5" />
</svg>
